<svg xmlns="http://www.w3.org/2000/svg" version="1.1" width="69.379px" height="60px" style="shape-rendering:geometricPrecision; text-rendering:geometricPrecision; image-rendering:optimizeQuality; fill-rule:evenodd; clip-rule:evenodd" xmlns:xlink="http://www.w3.org/1999/xlink" viewBox="0 0 69.379px 60px"><g><path style="opacity:1" fill="#eeb82e" d="M35.621 2.024q0.24 -0.019 0.45 0.096a3471.327 3471.327 0 0 0 24.09 13.908q0.1 13.716 0.193 27.43a2.216 2.216 0 0 1 -0.096 0.707 260136.817 260136.817 0 0 1 -24.218 13.876 9880.533 9880.533 0 0 0 -24.475 -14.133q-0.033 -11.563 -0.096 -23.126a187.709 187.709 0 0 1 0.064 -4.882 6416.915 6416.915 0 0 0 24.09 -13.876"/></g><g><path style="opacity:1" fill="#570302" d="M35.685 2.73a3.752 3.752 0 0 1 1.028 0.482 5989.078 5989.078 0 0 0 22.805 13.169 175.696 175.696 0 0 1 0.096 4.722q0.064 11.338 0 22.677a2151.391 2151.391 0 0 1 -23.64 13.49 2187.237 2187.237 0 0 1 -23.769 -13.683 5992.804 5992.804 0 0 0 -0.096 -25.567l0.064 -1.799a3130.021 3130.021 0 0 0 23.512 -13.49"/></g><g><path style="opacity:1" fill="#ebb52c" d="M35.685 4.336q1.074 -0.097 1.06 0.964 -0.371 0.905 -1.253 0.482 -0.544 -0.523 -0.161 -1.188a2.281 2.281 0 0 0 0.353 -0.257"/></g><g><path style="opacity:1" fill="#e2a633" d="M33.758 5.814a0.317 0.317 0 0 1 0.193 0.032 1.285 1.285 0 0 1 -0.257 0.225l0.032 0.064a2.634 2.634 0 0 1 0.353 0q-0.098 0.13 -0.257 0.193l0.032 0.064q0.213 0.012 0.418 0 -0.173 0.189 -0.418 0.257l-0.353 -0.578q0.101 -0.165 0.257 -0.257"/></g><g><path style="opacity:1" fill="#e4a931" d="M38.062 6.006q0.084 -0.013 0.128 0.064 -0.122 0.342 -0.385 0.578 0.01 -0.345 0.257 -0.642"/></g><g><path style="opacity:1" fill="#e1a52f" d="M38.448 6.263h0.193a2.634 2.634 0 0 0 0.032 0.578l0.257 -0.385a0.287 0.287 0 0 1 0.096 0.128 4.028 4.028 0 0 1 -0.385 0.578 0.234 0.234 0 0 1 -0.096 -0.064l-0.064 -0.514a0.797 0.797 0 0 0 -0.161 0.257q-0.096 0.128 -0.193 0a3.854 3.854 0 0 0 0.321 -0.578"/></g><g><path style="opacity:1" fill="#e1a532" d="M32.923 6.263h0.321a0.317 0.317 0 0 1 -0.032 0.193q-0.27 -0.156 -0.289 0.161 0.037 0.361 0.353 0.225a0.317 0.317 0 0 0 0.032 -0.193h0.193q-0.07 0.437 -0.514 0.353 -0.47 -0.339 -0.064 -0.739"/></g><g><path style="opacity:1" fill="#e5a834" d="M40.054 7.098q0.254 0.16 0.514 0.321 -0.111 0.119 -0.225 0a3.34 3.34 0 0 0 -0.353 0.514q-0.052 -0.32 0.193 -0.578 -0.221 -0.084 -0.128 -0.257"/></g><g><path style="opacity:1" fill="#e6ab31" d="M32.281 6.713q0.291 0.223 0.45 0.578l-0.128 0.064q-0.257 -0.114 -0.514 -0.161 0.209 0.183 0.128 0.418a4.176 4.176 0 0 1 -0.385 -0.578l0.161 -0.064q0.2 0.107 0.418 0.096 -0.131 -0.153 -0.128 -0.353"/></g><g><path style="opacity:1" fill="#e3a633" d="M39.283 6.777q0.468 -0.052 0.418 0.385a1.317 1.317 0 0 1 -0.161 -0.225q-0.109 -0.072 -0.193 0.032 0.256 0.202 0.161 0.514 -0.356 0.161 -0.482 -0.225l0.064 -0.096q0.098 0.257 0.321 0.128 -0.277 -0.21 -0.128 -0.514"/></g><g><path style="opacity:1" fill="#e0a332" d="M31.445 7.163q0.084 -0.013 0.128 0.064a1.278 1.278 0 0 0 -0.257 0.225q0.168 0.176 0.321 -0.032l0.064 0.064 -0.193 0.257q0.184 0.053 0.385 0.032 -0.205 0.246 -0.482 0.161a3.019 3.019 0 0 1 -0.289 -0.514 1.522 1.522 0 0 1 0.321 -0.257"/></g><g><path style="opacity:1" fill="#edb82b" d="M35.814 7.42a0.829 0.829 0 0 1 0.321 0.032 4139.999 4139.999 0 0 0 18.694 10.792 265178.165 265178.165 0 0 1 -18.758 10.857q-0.096 0.064 -0.193 0a143235.901 143235.901 0 0 1 -18.758 -10.857 1973.576 1973.576 0 0 0 18.694 -10.824"/></g><g><path style="opacity:1" fill="#e2a531" d="M30.739 7.612q0.096 -0.008 0.161 0.064 0.125 0.269 0.289 0.514a0.287 0.287 0 0 1 -0.096 0.128q-0.231 -0.333 -0.353 -0.707"/></g><g><path style="opacity:1" fill="#e4a82f" d="M40.824 7.548q0.094 0.03 0.128 0.128a4.028 4.028 0 0 1 -0.385 0.578q-0.104 -0.083 -0.032 -0.193a3.045 3.045 0 0 0 0.289 -0.514"/></g><g><path style="opacity:1" fill="#e1a632" d="M30.096 7.934q0.248 -0.034 0.45 0.096l-0.321 0.064q-0.162 0.3 0.161 0.418 0.17 -0.081 0.257 -0.257 0.047 0.529 -0.482 0.353 -0.339 -0.311 -0.064 -0.675"/></g><g><path style="opacity:1" fill="#e4a936" d="M41.21 7.805q0.307 0.082 0.514 0.321 -0.104 0.024 -0.257 0.032a3.148 3.148 0 0 1 -0.321 0.418q-0.025 -0.277 0.193 -0.514 -0.109 -0.108 -0.128 -0.257"/></g><g><path style="opacity:1" fill="#e2a633" d="M41.981 8.255q0.096 -0.003 0.128 0.096a1.24 1.24 0 0 0 -0.193 0.418q0.035 0.268 0.257 0.128 0.129 -0.225 0.257 -0.45a0.287 0.287 0 0 1 0.128 0.096 3.167 3.167 0 0 1 -0.321 0.514q-0.515 0.095 -0.482 -0.418a1.747 1.747 0 0 0 0.225 -0.385"/></g><g><path style="opacity:1" fill="#dea231" d="M29.325 8.383q0.172 -0.027 0.321 0.064 -0.115 0.089 -0.257 0.064 -0.003 0.315 0.257 0.128 0.407 0.112 0.128 0.418 -0.224 0.201 -0.385 -0.032l0.321 -0.128a16.767 16.767 0 0 0 -0.482 -0.128q-0.072 -0.225 0.096 -0.385"/></g><g><path style="opacity:1" fill="#e4a92f" d="M42.752 8.704a2.248 2.248 0 0 1 0.578 0.321 1.844 1.844 0 0 0 -0.321 0.064q-0.082 0.23 -0.257 0.385 -0.104 -0.083 -0.032 -0.193a3.019 3.019 0 0 0 0.225 -0.353q-0.186 -0.041 -0.193 -0.225"/></g><g><path style="opacity:1" fill="#e0a432" d="M43.587 9.154a2.351 2.351 0 0 1 0.45 0.257q-0.19 0.104 -0.353 -0.064 -0.075 0.232 0.161 0.321 -0.18 0.112 -0.321 -0.064l-0.064 0.096a17.602 17.602 0 0 0 0.257 0.257q-0.297 0.044 -0.45 -0.225a3.758 3.758 0 0 1 0.321 -0.578"/></g><g><path style="opacity:1" fill="#e1a52f" d="M28.169 9.09a44.582 44.582 0 0 1 0.385 0.514q0.175 -0.16 0.321 -0.032 -0.199 0.181 -0.45 0.193a6.938 6.938 0 0 0 -0.321 -0.546q0.035 -0.066 0.064 -0.128"/></g><g><path style="opacity:1" fill="#e1a62e" d="M27.527 9.475q0.386 0.143 0.642 0.482l-0.096 0.096q-0.383 -0.181 -0.418 0.257 -0.222 -0.398 -0.128 -0.835"/></g><g><path style="opacity:1" fill="#e5ab31" d="M44.679 9.861q0.559 0.03 0.418 0.578 -0.326 0.384 -0.642 0 -0.092 -0.372 0.225 -0.578"/></g><g><path style="opacity:1" fill="#601407" d="M44.679 10.054q0.506 0.013 0.193 0.418 -0.495 -0.011 -0.193 -0.418"/></g><g><path style="opacity:1" fill="#dea231" d="M26.692 9.925q0.771 0.096 0 0.193 -0.018 0.235 0.128 0.418 0.305 0.08 0.225 -0.225 -0.086 0.117 -0.161 0 0.283 -0.402 0.385 0.064 -0.252 0.533 -0.675 0.128 -0.09 -0.32 0.096 -0.578"/></g><g><path style="opacity:1" fill="#dfa333" d="M45.514 10.31q0.254 0.044 0.45 0.225 -0.198 0.029 -0.385 0l-0.064 0.064q0.48 0.261 0 0.161l-0.257 0.193q-0.104 -0.083 -0.032 -0.193 0.146 -0.228 0.289 -0.45"/></g><g><path style="opacity:1" fill="#e2a631" d="M25.985 10.375a0.317 0.317 0 0 1 0.193 0.032 1.278 1.278 0 0 1 -0.257 0.225l0.032 0.064a2.634 2.634 0 0 1 0.353 0q-0.505 0.41 0.096 0.193l0.096 0.064a1.176 1.176 0 0 1 -0.385 0.257 2.974 2.974 0 0 1 -0.385 -0.61q0.114 -0.136 0.257 -0.225"/></g><g><path style="opacity:1" fill="#e4a832" d="M25.086 10.889q0.228 0.226 0.418 0.514a1.156 1.156 0 0 1 0.225 -0.128q0.098 0.048 0.032 0.128l-0.321 0.193q-0.282 -0.307 -0.353 -0.707"/></g><g><path style="opacity:1" fill="#e1a434" d="M46.542 10.889q0.113 -0.021 0.193 0.064a3.148 3.148 0 0 0 -0.257 0.482q0.047 0.153 0.193 0.225 -0.254 0.062 -0.45 -0.161a1.677 1.677 0 0 0 0.321 -0.61"/></g><g><path style="opacity:1" fill="#e2a531" d="M47.248 11.274q0.267 0.053 0.45 0.257 -0.18 0.112 -0.321 -0.064 -0.129 0.223 0.128 0.321 -0.15 0.082 -0.289 -0.064a0.287 0.287 0 0 0 -0.096 0.128 1.278 1.278 0 0 1 0.257 0.225q-0.278 0.038 -0.45 -0.193a8.287 8.287 0 0 0 0.321 -0.61"/></g><g><path style="opacity:1" fill="#e0a333" d="M24.315 11.338q0.084 -0.013 0.128 0.064 -0.082 0.13 -0.225 0.193 -0.064 0.064 0 0.128 0.157 -0.058 0.353 0 -0.345 0.16 -0.064 0.418a0.287 0.287 0 0 1 -0.128 0.096l-0.385 -0.642q0.185 -0.107 0.321 -0.257"/></g><g><path style="opacity:1" fill="#e1a330" d="M47.955 11.788q0.29 -0.024 0.482 0.193 0.072 0.109 -0.032 0.193a1.163 1.163 0 0 0 -0.289 -0.257q-0.33 0.131 -0.161 0.45 0.096 0.128 0.193 0 -0.105 -0.107 0 -0.193 0.341 0.125 0.064 0.353 -0.842 -0.101 -0.257 -0.739"/></g><g><path style="opacity:1" fill="#e1a533" d="M23.48 11.852q0.692 0.131 0.321 0.739 -0.623 0.092 -0.546 -0.546a1.927 1.927 0 0 1 0.225 -0.193"/></g><g><path style="opacity:1" fill="#590b05" d="M23.415 12.045q0.48 -0.019 0.321 0.418 -0.415 0.017 -0.321 -0.418"/></g><g><path style="opacity:1" fill="#db9e31" d="M48.919 12.302h0.257a4.291 4.291 0 0 1 -0.161 0.835 2.107 2.107 0 0 0 -0.225 -0.353q-0.149 -0.032 -0.257 0.096l-0.064 -0.096a4.754 4.754 0 0 0 0.45 -0.482"/></g><g><path style="opacity:1" fill="#762a0c" d="M33.694 18.983a135.353 135.353 0 0 0 5.91 -0.225q0.844 -0.059 1.188 -0.803a28.715 28.715 0 0 0 0.289 -5.139h-10.985v6.167a151.156 151.156 0 0 1 -0.064 -6.231h11.178v6.231z"/></g><g><path style="opacity:1" fill="#560000" d="M33.694 18.983h-3.597v-6.167h10.985a28.715 28.715 0 0 1 -0.289 5.139q-0.345 0.744 -1.188 0.803a135.353 135.353 0 0 1 -5.91 0.225"/></g><g><path style="opacity:1" fill="#651916" d="M30.353 12.944q2.634 -0.016 5.268 0.032a17.281 17.281 0 0 1 -1.413 0.45 92.762 92.762 0 0 0 -2.12 0.385q-0.693 0.341 -0.739 1.124 -0.299 0.753 -1.124 0.707 -0.016 -1.253 0.032 -2.505 0.1 -0.072 0.096 -0.193"/></g><g><path style="opacity:1" fill="#e2a732" d="M22.323 12.495q0.113 -0.021 0.193 0.064 -0.161 0.096 -0.257 0.257 0.206 0.039 0.385 0a0.951 0.951 0 0 1 -0.257 0.225q0.189 0.152 0.385 -0.032l0.064 0.064q-0.156 0.175 -0.385 0.257 -0.263 -0.236 -0.385 -0.578 0.163 -0.098 0.257 -0.257"/></g><g><path style="opacity:1" fill="#e2a734" d="M49.625 12.687q0.096 -0.003 0.128 0.096 -0.128 0.223 -0.257 0.45a1.317 1.317 0 0 0 0.225 0.161q0.066 0.08 -0.032 0.128a1.176 1.176 0 0 1 -0.385 -0.257 3.829 3.829 0 0 0 0.321 -0.578"/></g><g><path style="opacity:1" fill="#e5a831" d="M21.681 12.88q0.121 -0.004 0.193 0.096 -0.136 0.035 -0.193 0.161l0.257 0.45 -0.096 0.064a1.458 1.458 0 0 1 -0.289 -0.418q-0.14 0.025 -0.257 -0.032a47.666 47.666 0 0 0 0.385 -0.321"/></g><g><path style="opacity:1" fill="#e2a533" d="M50.653 13.33q0.326 -0.068 0.45 0.225l-0.064 0.096a0.604 0.604 0 0 0 -0.193 -0.193l-0.064 0.096a2.762 2.762 0 0 1 0.193 0.353q-0.336 0.377 -0.578 -0.096l0.064 -0.096q0.098 0.257 0.321 0.128 -0.277 -0.21 -0.128 -0.514"/></g><g><path style="opacity:1" fill="#e3a930" d="M20.91 13.33q0.219 0.176 0.353 0.45 0.069 0.155 -0.032 0.289 -0.696 0.251 -0.642 -0.482l0.257 0.385q0.115 0.089 0.257 0.064a2.525 2.525 0 0 0 -0.193 -0.707"/></g><g><path style="opacity:1" fill="#e3a732" d="M51.424 13.779q0.454 -0.06 0.514 0.385h-0.193q-0.044 -0.416 -0.353 -0.128 -0.064 0.161 0 0.321 0.182 0.058 0.353 0.064 -0.413 0.277 -0.578 -0.225 0.072 -0.248 0.257 -0.418"/></g><g><path style="opacity:1" fill="#dea22e" d="M20.075 13.844a0.317 0.317 0 0 1 0.193 0.032q-0.103 0.071 -0.128 0.193a1.734 1.734 0 0 0 0.257 0.482l-0.096 0.064a93.919 93.919 0 0 1 -0.385 -0.514q-0.101 0.098 -0.225 0.032a2.184 2.184 0 0 1 0.385 -0.289"/></g><g><path style="opacity:1" fill="#dea22f" d="M52.645 14.422q0.297 0.004 0.45 0.257l-0.064 0.064q-0.154 -0.208 -0.321 -0.032 0.394 0.379 -0.064 0.161l-0.064 0.096a0.964 0.964 0 0 0 0.257 0.225q-0.286 0.068 -0.514 -0.161a4.561 4.561 0 0 0 0.321 -0.61"/></g><g><path style="opacity:1" fill="#e2a436" d="M52.259 14.165q0.166 0.033 0.096 0.193 -0.123 0.299 -0.353 0.514 -0.104 -0.083 -0.032 -0.193a3.045 3.045 0 0 0 0.289 -0.514"/></g><g><path style="opacity:1" fill="#dea02e" d="M19.304 14.293q0.146 0.001 0.225 0.128l0.289 0.45q-0.111 0.119 -0.225 0a1.831 1.831 0 0 1 -0.289 -0.578"/></g><g><path style="opacity:1" fill="#dfa333" d="M18.983 14.486q0.084 -0.013 0.128 0.064 -0.228 0.372 0.128 0.675a0.287 0.287 0 0 1 -0.128 0.096 5.782 5.782 0 0 0 -0.321 -0.482q-0.14 0.025 -0.257 -0.032a2.46 2.46 0 0 0 0.45 -0.321"/></g><g><path style="opacity:1" fill="#e1a532" d="M18.019 15.064q0.631 0.039 0 0.193a2.203 2.203 0 0 0 0.514 0.096q0.133 0.245 -0.128 0.385 -0.17 0.077 -0.321 -0.032 0.149 -0.092 0.321 -0.064v-0.193q-0.71 0.254 -0.385 -0.385"/></g><g><path style="opacity:1" fill="#e0a331" d="M53.415 14.807q0.169 0.218 0.225 0.514a1.317 1.317 0 0 0 0.161 -0.225q0.095 -0.057 0.128 0.064a8.737 8.737 0 0 1 -0.353 0.61l-0.193 -0.578 -0.225 0.321q-0.017 -0.388 0.257 -0.707"/></g><g><path style="opacity:1" fill="#e0a431" d="M54.186 15.385q0.539 -0.073 0.482 0.45 -0.238 -0.581 -0.546 -0.064a0.317 0.317 0 0 0 0.064 0.161 1.298 1.298 0 0 1 0.385 0.096q-0.306 0.273 -0.546 -0.064 -0.084 -0.337 0.161 -0.578"/></g><g><path style="opacity:1" fill="#e1a530" d="M17.441 15.385q0.268 0.275 0.45 0.642l-0.128 0.064q-0.19 -0.093 -0.385 -0.193 -0.07 0.202 0.128 0.353 -0.089 0.144 -0.193 0.032 -0.215 -0.301 -0.321 -0.642 0.275 0.041 0.514 0.193 0.07 -0.202 -0.128 -0.353 0.054 -0.037 0.064 -0.096"/></g><g><path style="opacity:1" fill="#e2a532" d="M55.021 15.771q0.271 0.045 0.45 0.257 -0.15 0.082 -0.289 -0.064a0.287 0.287 0 0 0 -0.096 0.128 0.604 0.604 0 0 1 0.193 0.193l-0.064 0.064 -0.193 -0.128 -0.064 0.096a0.784 0.784 0 0 0 0.193 0.257l-0.032 0.096 -0.418 -0.289a1.677 1.677 0 0 0 0.321 -0.61"/></g><g><path style="opacity:1" fill="#e0a534" d="M16.606 15.899q0.096 -0.008 0.161 0.064 0.125 0.269 0.289 0.514a0.287 0.287 0 0 1 -0.096 0.128q-0.245 -0.324 -0.353 -0.707"/></g><g><path style="opacity:1" fill="#ecb62c" d="M13.844 17.12q0.728 -0.142 1.06 0.514 0.055 1.391 -1.253 0.931 -0.713 -0.836 0.193 -1.445"/></g><g><path style="opacity:1" fill="#ecb62c" d="M57.206 17.12q1.23 -0.135 1.06 1.092 -0.545 0.835 -1.349 0.257 -0.537 -0.825 0.289 -1.349"/></g><g><path style="opacity:1" fill="#580402" d="M42.623 23.415h-13.94q-0.115 -0.035 -0.128 -0.161a75.61 75.61 0 0 0 1.156 -3.887 543.919 543.919 0 0 1 11.82 0.064 171.649 171.649 0 0 1 1.221 3.822q-0.013 0.125 -0.128 0.161"/></g><g><path style="opacity:1" fill="#d79b2b" d="M57.398 19.882h0.707v0.193h-0.707z"/></g><g><path style="opacity:1" fill="#eab130" d="M30.803 20.011v0.257q-0.338 0.053 -0.578 -0.128 0.24 -0.182 0.578 -0.128"/></g><g><path style="opacity:1" fill="#e9b22d" d="M35.749 20.268h-1.092v-0.257h1.092z"/></g><g><path style="opacity:1" fill="#e9b22d" d="M36.97 20.268h-1.092v-0.257h1.092z"/></g><g><path style="opacity:1" fill="#edb42f" d="M40.824 20.011a1.188 1.188 0 0 1 0.385 0.032q0.081 0.097 0.064 0.225h-0.45z"/></g><g><path style="opacity:1" fill="#ebb52c" d="M38.191 20.268h-1.092v-0.257h1.092z"/></g><g><path style="opacity:1" fill="#e9b22f" d="M39.411 20.011v0.257h-1.092v-0.257z"/></g><g><path style="opacity:1" fill="#edb82b" d="M55.6 19.882q0.128 5.412 0.128 10.889l-0.064 10.889a7456.958 7456.958 0 0 0 -18.726 10.792 894.668 894.668 0 0 1 -0.032 -17.762 55.889 55.889 0 0 0 -0.128 -3.79 5.782 5.782 0 0 0 0.321 -0.482q0.076 0.042 0.161 0.064a2547.815 2547.815 0 0 0 18.34 -10.6"/></g><g><path style="opacity:1" fill="#edb82b" d="M16.221 19.882a2902.483 2902.483 0 0 1 18.758 10.792q0.128 10.889 0 21.777a4021.348 4021.348 0 0 0 -18.694 -10.792q-0.096 -10.888 -0.064 -21.777"/></g><g><path style="opacity:1" fill="#e9b035" d="M32.73 20.396h0.835v0.321h-0.835z"/></g><g><path style="opacity:1" fill="#eab037" d="M33.63 20.396h0.835v0.321h-0.835z"/></g><g><path style="opacity:1" fill="#e8ac31" d="M14.55 20.268v0.45h-0.707a0.842 0.842 0 0 1 0.064 -0.45q0.092 0.149 0.064 0.321h0.193q0.064 -0.642 0.128 0h0.193q-0.027 -0.184 0.064 -0.321"/></g><g><path style="opacity:1" fill="#e8ad36" d="M41.274 20.396q0.138 0.123 0.128 0.321h-0.514v-0.321z"/></g><g><path style="opacity:1" fill="#eab038" d="M30.161 20.396h0.642v0.321q-0.373 0.03 -0.707 -0.064 -0.026 -0.154 0.064 -0.257"/></g><g><path style="opacity:1" fill="#e5ab31" d="M58.105 20.974q-0.4 0.056 -0.707 -0.128a2.075 2.075 0 0 0 0.385 -0.289q-0.717 -0.096 -0.032 -0.161l0.353 0.064a1.019 1.019 0 0 1 -0.385 0.353q0.246 0 0.385 0.161"/></g><g><path style="opacity:1" fill="#98551a" d="M14.55 20.268q0.094 0.236 0.064 0.514 -0.405 0.031 -0.771 -0.064h0.707z"/></g><g><path style="opacity:1" fill="#843f16" d="M32.73 20.717h0.835v0.578h-0.835v-0.064h0.771v-0.385h-0.771z"/></g><g><path style="opacity:1" fill="#894417" d="M35.878 20.268h1.092v0.128h-0.578v0.321h0.771v0.128h-0.771v0.321l-0.128 -0.771h-0.385z"/></g><g><path style="opacity:1" fill="#803b12" d="M39.411 20.011q0.077 0.14 0.096 0.321 0.019 -0.181 0.096 -0.321v0.257h1.028v-0.257q0.093 0.17 0.064 0.385h-0.707v0.321h0.835q0.027 -0.184 -0.064 -0.321 -0.028 -0.215 0.064 -0.385v0.257h0.45v0.128h-0.385v0.321h0.514v0.128h-1.413v0.385h1.542v0.064h-2.441l-0.128 0.385q-0.431 0.095 -0.899 0.064 -0.405 0.031 -0.771 -0.064h0.771v-0.385h-0.771v-0.064h0.771v-0.385h-0.771v-0.128l-0.128 -0.321h-0.064v-0.128h1.092v0.45h0.771v-0.321h-0.642v-0.128h1.092z"/></g><g><path style="opacity:1" fill="#eab035" d="M38.191 20.396h0.771v0.321h-0.771z"/></g><g><path style="opacity:1" fill="#eab036" d="M37.291 20.717v-0.321h0.771v0.321z"/></g><g><path style="opacity:1" fill="#ebb038" d="M40.696 20.396h0.064q0.092 0.137 0.064 0.321h-0.835v-0.321z"/></g><g><path style="opacity:1" fill="#e9b22e" d="M39.604 20.011h1.028v0.257h-1.028z"/></g><g><path style="opacity:1" fill="#edb82d" d="M39.09 20.396h0.771v0.771h-1.67v-0.321h0.899z"/></g><g><path style="opacity:1" fill="#d99d2f" d="M41.403 20.846q0.113 0.098 0.128 0.257a0.54 0.54 0 0 1 -0.257 -0.032 0.287 0.287 0 0 0 0.128 -0.096 7.131 7.131 0 0 0 -1.349 -0.064v0.257h1.478v0.064h-1.542v-0.385z"/></g><g><path style="opacity:1" fill="#e9b22b" d="M37.291 20.846h0.771v0.385h-0.771z"/></g><g><path style="opacity:1" fill="#945305" d="M57.398 20.846q0.307 0.184 0.707 0.128 -0.366 0.095 -0.771 0.064 -0.023 -0.124 0.064 -0.193"/></g><g><path style="opacity:1" fill="#813c11" d="M30.803 20.011q0.05 0.194 0.128 0.257h1.092v-0.257q0.05 0.194 0.128 0.257h1.156q0.079 -0.063 0.128 -0.257v0.257h1.028v-0.257q0.12 0.182 0 0.385h-1.734l-0.128 0.321v0.128q0.128 0.418 0 0.835v-0.321a28.394 28.394 0 0 0 -2.698 -0.064q-0.023 -0.124 0.064 -0.193 0.85 0.096 1.734 0.064v-0.321h-1.67q-0.023 -0.124 0.064 -0.193 0.334 0.095 0.707 0.064v-0.321h-0.642q-0.026 -0.154 0.064 -0.257 0.24 0.182 0.578 0.128z"/></g><g><path style="opacity:1" fill="#eab036" d="M32.602 20.717h-0.771v-0.321h0.771z"/></g><g><path style="opacity:1" fill="#ecb336" d="M30.931 20.396h0.771v0.321h-0.771z"/></g><g><path style="opacity:1" fill="#ecb62b" d="M33.437 20.011h1.028v0.257h-1.028z"/></g><g><path style="opacity:1" fill="#e8b12c" d="M32.024 20.011v0.257h-1.092v-0.257z"/></g><g><path style="opacity:1" fill="#e6ae2e" d="M33.308 20.268h-1.156v-0.257h1.156z"/></g><g><path style="opacity:1" fill="#edb72e" d="M32.602 20.846v0.321h-0.771v-0.321z"/></g><g><path style="opacity:1" fill="#edb82b" d="M30.032 20.846h1.67v0.321q-0.885 0.031 -1.734 -0.064 -0.026 -0.154 0.064 -0.257"/></g><g><path style="opacity:1" fill="#e8b12b" d="M32.73 20.846h0.771v0.385h-0.771z"/></g><g><path style="opacity:1" fill="#edb82b" d="M41.531 21.103v0.064h-1.478v-0.257q0.678 -0.032 1.349 0.064a0.287 0.287 0 0 1 -0.128 0.096 0.54 0.54 0 0 0 0.257 0.032"/></g><g><path style="opacity:1" fill="#c17f32" d="M33.63 20.846h0.064v0.321h0.707v-0.321q0.093 0.17 0.064 0.385h-0.835z"/></g><g><path style="opacity:1" fill="#eeb82c" d="M33.694 20.846h0.707v0.321h-0.707z"/></g><g><path style="opacity:1" fill="#722c0c" d="M34.657 20.268h1.092v0.128h-0.321v0.321h0.835v-0.321l0.128 0.771q0.366 0.095 0.771 0.064v-0.835l0.128 0.321v0.964q0.366 0.095 0.771 0.064 -0.19 0.064 -0.418 0.064 -0.268 -0.013 -0.482 -0.128v-0.321a27.045 27.045 0 0 0 -2.634 -0.064v0.385h-0.064v-0.385h-0.835v-0.064h0.835q0.028 -0.215 -0.064 -0.385h-0.771v-0.128h0.835v-0.321h0.064v0.321h0.835v-0.321h-0.707z"/></g><g><path style="opacity:1" fill="#c17f31" d="M35.3 20.846q0.093 0.17 0.064 0.385 -0.405 0.031 -0.771 -0.064h0.707z"/></g><g><path style="opacity:1" fill="#e8b12e" d="M35.492 20.846h0.771v0.385h-0.771z"/></g><g><path style="opacity:1" fill="#ecb52f" d="M35.3 20.846v0.321h-0.707q-0.092 -0.137 -0.064 -0.321z"/></g><g><path style="opacity:1" fill="#e9b12c" d="M37.163 20.846v0.385q-0.405 0.031 -0.771 -0.064v-0.321z"/></g><g><path style="opacity:1" fill="#ebb039" d="M36.97 20.396h0.193v0.321h-0.771v-0.321z"/></g><g><path style="opacity:1" fill="#eab138" d="M34.529 20.396h0.835v0.321h-0.835z"/></g><g><path style="opacity:1" fill="#eab037" d="M35.749 20.396h0.514v0.321h-0.835v-0.321z"/></g><g><path style="opacity:1" fill="#ce8c3c" d="M29.904 21.295a28.394 28.394 0 0 1 2.698 0.064 30.45 30.45 0 0 0 -2.762 0.064q-0.017 -0.096 0.064 -0.128"/></g><g><path style="opacity:1" fill="#c37f39" d="M32.73 21.295h0.835v0.45h-0.835z"/></g><g><path style="opacity:1" fill="#c5813d" d="M33.63 21.295h0.835v0.385q-0.398 0.095 -0.835 0.064z"/></g><g><path style="opacity:1" fill="#c17c37" d="M37.163 21.36h-2.57v0.321h2.57a13.535 13.535 0 0 1 -2.634 0v-0.385q1.334 -0.032 2.634 0.064"/></g><g><path style="opacity:1" fill="#eeb92b" d="M32.602 21.36v0.321q-1.414 0.016 -2.827 -0.032 0.081 -0.097 0.064 -0.225a30.45 30.45 0 0 1 2.762 -0.064"/></g><g><path style="opacity:1" fill="#eeb92a" d="M33.694 21.36h0.707v0.321h-0.707z"/></g><g><path style="opacity:1" fill="#e9b12f" d="M37.291 21.295h0.771v0.385h-0.771z"/></g><g><path style="opacity:1" fill="#ebb52d" d="M38.961 21.681h-0.771v-0.385h0.771z"/></g><g><path style="opacity:1" fill="#e9b22f" d="M39.09 21.295h2.441q0.081 0.033 0.064 0.128v0.257h-2.505z"/></g><g><path style="opacity:1" fill="#eeb929" d="M32.794 21.36h0.707v0.321h-0.707z"/></g><g><path style="opacity:1" fill="#dfa236" d="M13.972 21.039q0.096 -0.003 0.128 0.096 -0.32 0.547 0.289 0.353 0.008 -0.208 0.032 -0.385 0.266 0.153 0.161 0.45 -0.267 0.304 -0.61 0.096 -0.252 -0.305 0 -0.61"/></g><g><path style="opacity:1" fill="#eeb92b" d="M37.163 21.36v0.321h-2.57v-0.321z"/></g><g><path style="opacity:1" fill="#a45d26" d="M41.595 21.424q0.092 0.137 0.064 0.321a25.76 25.76 0 0 1 -2.57 -0.064h2.505z"/></g><g><path style="opacity:1" fill="#e0a331" d="M57.463 21.295q0.096 -0.003 0.128 0.096 -0.108 0.663 0.193 0 0.128 -0.064 0.257 0 0.15 0.273 -0.064 0.482 0.01 -0.736 -0.257 -0.032 -0.346 0.103 -0.385 -0.257 0.002 -0.177 0.128 -0.289"/></g><g><path style="opacity:1" fill="#a6660a" d="M13.844 22.066q0.366 -0.095 0.771 -0.064 0.023 0.124 -0.064 0.193 -0.307 -0.184 -0.707 -0.128"/></g><g><path style="opacity:1" fill="#ebb133" d="M13.844 22.066q0.4 -0.056 0.707 0.128a2.634 2.634 0 0 1 -0.385 0.289q0.19 0.048 0.385 0.032 -0.307 0.184 -0.707 0.128 0.116 -0.27 0.385 -0.418 -0.246 0 -0.385 -0.161"/></g><g><path style="opacity:1" fill="#c28320" d="M34.208 22.002h2.505l0.193 1.028h-2.891a2.955 2.955 0 0 1 0.193 -1.028"/></g><g><path style="opacity:1" fill="#e3a63c" d="M57.976 22.195q0.122 0.098 0.128 0.289l-0.064 0.289q-0.085 -0.079 -0.064 -0.193h-0.578v-0.193h0.578z"/></g><g><path style="opacity:1" fill="#965108" d="M14.55 22.516q0.087 0.068 0.064 0.193 -0.405 0.031 -0.771 -0.064 0.4 0.056 0.707 -0.128"/></g><g><path style="opacity:1" fill="#954f15" d="M13.844 23.48h0.707a1.606 1.606 0 0 0 -0.032 -0.45q-0.019 0.181 -0.096 0.321v-0.385h0.193v0.578q-0.405 0.031 -0.771 -0.064"/></g><g><path style="opacity:1" fill="#f0b448" d="M57.398 23.094a1.998 1.998 0 0 1 0.707 0.064l-0.353 0.064q-0.221 -0.004 -0.353 -0.128"/></g><g><path style="opacity:1" fill="#eaae36" d="M14.422 23.351q0.077 -0.14 0.096 -0.321 0.048 0.223 0.032 0.45h-0.707a1.086 1.086 0 0 1 0.064 -0.514 0.633 0.633 0 0 1 0.064 0.385h0.193q-0.027 -0.172 0.064 -0.321 0.048 0.208 0.193 0.321"/></g><g><path style="opacity:1" fill="#6e2103" d="M28.683 23.415h13.683a260.492 260.492 0 0 1 -8.672 0.257q-2.441 0.016 -4.882 -0.032 -0.127 -0.079 -0.128 -0.225"/></g><g><path style="opacity:1" fill="#7e3609" d="M42.366 23.415h0.257q-0.001 0.146 -0.128 0.225 -4.4 0.048 -8.801 0.032 4.338 -0.056 8.672 -0.257"/></g><g><path style="opacity:1" fill="#da9d2d" d="M57.976 23.48q0.123 0.115 0.128 0.321l-0.064 0.321q-0.085 -0.079 -0.064 -0.193h-0.642v-0.193h0.642z"/></g><g><path style="opacity:1" fill="#c6862f" d="M13.844 23.801h0.771v0.193h-0.771z"/></g><g><path style="opacity:1" fill="#e0a335" d="M13.908 24.315q0.113 -0.021 0.193 0.064 -0.297 0.509 0.321 0.385 -0.054 -0.236 0 -0.45 0.403 0.346 -0.064 0.61 -0.678 0.044 -0.45 -0.61"/></g><g><path style="opacity:1" fill="#dda32b" d="M57.463 24.443q0.327 -0.031 0.642 0.064a1.355 1.355 0 0 1 -0.578 0.064v0.321h0.578v0.193q-0.889 0.204 -0.642 -0.642"/></g><g><path style="opacity:1" fill="#dfa234" d="M14.229 25.214q0.481 -0.017 0.353 0.45a0.466 0.466 0 0 1 -0.161 0.128q-0.006 -0.185 -0.064 -0.385a3.919 3.919 0 0 1 -0.193 0.353q-0.432 0.024 -0.289 -0.418 0.086 -0.117 0.161 0 -0.11 0.134 0 0.257 0.169 -0.151 0.193 -0.385"/></g><g><path style="opacity:1" fill="#e3ab2c" d="M57.976 25.343q0.123 0.115 0.128 0.321l-0.064 0.321q-0.089 -0.115 -0.064 -0.257 -1.156 -0.064 0 -0.128z"/></g><g><path style="opacity:1" fill="#e0a62b" d="M58.041 26.756v-0.385h-0.257q-0.032 0.642 -0.064 0 -0.124 -0.023 -0.193 0.064 0.027 0.172 -0.064 0.321a1.086 1.086 0 0 1 -0.064 -0.514h0.707q0.03 0.278 -0.064 0.514"/></g><g><path style="opacity:1" fill="#b26a35" d="M57.527 26.435q0.068 -0.087 0.193 -0.064 0.032 0.642 0.064 0h0.257v0.385a7.195 7.195 0 0 1 -0.128 -0.321q-0.092 0.149 -0.064 0.321h-0.193q0.041 -0.22 -0.128 -0.321"/></g><g><path style="opacity:1" fill="#d0922d" d="M14.422 26.499h0.193v0.514h-0.771v-0.193h0.578z"/></g><g><path style="opacity:1" fill="#dfa42c" d="M14.358 27.334q0.113 -0.021 0.193 0.064 -0.252 0.287 0.064 0.514l-0.096 0.064a15.418 15.418 0 0 1 -0.675 -0.193q-0.021 -0.158 0.064 -0.289 0.251 -0.038 0.45 -0.161"/></g><g><path style="opacity:1" fill="#e5a933" d="M57.591 27.463q0.759 0.024 0.385 0.675 -0.723 0.177 -0.546 -0.546 0.096 -0.055 0.161 -0.128"/></g><g><path style="opacity:1" fill="#601409" d="M57.591 27.655q0.445 -0.105 0.353 0.321 -0.538 0.217 -0.353 -0.321"/></g><g><path style="opacity:1" fill="#dd9e3c" d="M57.334 28.49h0.771a1.086 1.086 0 0 1 -0.064 0.514l-0.128 -0.321q-0.089 0.115 -0.064 0.257h-0.193v-0.257h-0.321z"/></g><g><path style="opacity:1" fill="#e2a731" d="M13.972 28.298q0.084 -0.013 0.128 0.064 -0.28 0.507 0.289 0.385 0.077 -0.17 -0.032 -0.321 -0.213 0.234 -0.193 -0.128 0.388 -0.089 0.45 0.289 -0.061 0.35 -0.418 0.353 -0.49 -0.034 -0.321 -0.514 0.069 -0.052 0.096 -0.128"/></g><g><path style="opacity:1" fill="#dca02e" d="M13.844 29.261q0.169 0.101 0.128 0.321h0.193q0.064 -0.642 0.128 0h0.193q-0.027 -0.172 0.064 -0.321a1.086 1.086 0 0 1 0.064 0.514h-0.771z"/></g><g><path style="opacity:1" fill="#d99e27" d="M57.398 29.711h0.707v0.193h-0.578q-0.076 0.107 -0.096 0.257a1.606 1.606 0 0 1 -0.032 -0.45"/></g><g><path style="opacity:1" fill="#98511b" d="M57.398 29.711q-0.016 0.227 0.032 0.45 0.02 -0.15 0.096 -0.257v0.321h-0.193q-0.03 -0.278 0.064 -0.514"/></g><g><path style="opacity:1" fill="#a8641b" d="M14.55 30.546a1.606 1.606 0 0 0 -0.032 -0.45q-0.02 0.15 -0.096 0.257v-0.321h0.193q0.03 0.278 -0.064 0.514"/></g><g><path style="opacity:1" fill="#7c310a" d="M26.113 30.996a0.899 0.899 0 0 1 -0.225 -0.064 0.989 0.989 0 0 1 -0.289 0.128q0.141 -0.203 -0.064 -0.353 0.369 -0.145 0.032 -0.353 -0.124 -0.695 0.546 -0.45 0.271 0.348 -0.064 0.642 0.057 0.125 0.193 0.161 -0.148 0.107 -0.128 0.289"/></g><g><path style="opacity:1" fill="#e1a829" d="M14.55 30.546h-0.707v-0.193h0.578q0.076 -0.107 0.096 -0.257 0.048 0.223 0.032 0.45"/></g><g><path style="opacity:1" fill="#de9f3d" d="M57.398 30.482h0.707a1.086 1.086 0 0 1 -0.064 0.514q-0.154 -0.631 -0.193 0h-0.193q-0.039 -0.631 -0.193 0a1.086 1.086 0 0 1 -0.064 -0.514"/></g><g><path style="opacity:1" fill="#5e0e04" d="M26.113 30.996q0.081 0.181 0.064 0.385v0.578q0.016 0.127 -0.064 0.225a2.088 2.088 0 0 1 -0.514 0.032v-1.156a0.989 0.989 0 0 0 0.289 -0.128q0.11 0.047 0.225 0.064"/></g><g><path style="opacity:1" fill="#dea22a" d="M13.844 31.253q0.174 0.137 0.128 0.385h0.193q-0.027 -0.172 0.064 -0.321 0.089 0.115 0.064 0.257h0.321v0.193h-0.771z"/></g><g><path style="opacity:1" fill="#81380a" d="M25.6 31.06v0.899q-0.547 -0.231 -1.156 -0.193a4.58 4.58 0 0 0 -1.349 0.193q-0.338 0.01 -0.642 -0.128l-0.128 0.064q0.279 0.368 -0.064 0.675 0.054 0.037 0.064 0.096 -0.087 0.068 -0.064 0.193 -0.142 0.025 -0.257 -0.064 0.079 -0.085 0.193 -0.064a0.633 0.633 0 0 0 -0.064 -0.385 0.662 0.662 0 0 0 -0.096 0.257q-0.065 0.073 -0.161 0.064 0.011 -0.059 0.064 -0.096 -0.234 -0.226 0 -0.418 0.099 0.13 0.257 0.128 0.039 -0.299 -0.225 -0.45 -0.202 0.2 -0.353 -0.096 0.025 -0.122 0.128 -0.193a1.657 1.657 0 0 0 0.482 -0.161q0.328 0.173 0.675 0.257a4.561 4.561 0 0 0 1.156 -0.482q0.761 -0.102 1.478 0.161 -0.026 -0.154 0.064 -0.257"/></g><g><path style="opacity:1" fill="#e3a734" d="M57.527 31.317q0.872 -0.078 0.418 0.642l-0.096 -0.064q0.299 -0.527 -0.289 -0.385 -0.077 0.17 0.032 0.321 0.213 -0.234 0.193 0.128 -0.528 0.006 -0.353 -0.514 0.069 -0.052 0.096 -0.128"/></g><g><path style="opacity:1" fill="#e5ab32" d="M13.972 32.088q0.365 -0.066 0.61 0.193 0.088 0.275 -0.161 0.418 -0.843 0.137 -0.45 -0.61"/></g><g><path style="opacity:1" fill="#5a0c04" d="M14.101 32.216q0.449 -0.047 0.257 0.353 -0.574 0.118 -0.257 -0.353"/></g><g><path style="opacity:1" fill="#8e4c0a" d="M26.178 40.953q-0.096 -4.223 -0.064 -8.48h-0.45q0.032 4.224 -0.064 8.415 -0.016 -4.24 0.032 -8.48 0.238 -0.124 0.482 0 0.096 4.271 0.064 8.544"/></g><g><path style="opacity:1" fill="#5d1007" d="M39.54 32.537a3.662 3.662 0 0 1 0.353 0.45q0.048 0.19 0.032 0.385 -0.141 0.006 -0.257 -0.064 -0.092 -0.044 -0.161 -0.128 0.026 -0.607 -0.546 -0.803 0.128 -0.064 0.257 0 0.136 0.132 0.321 0.161"/></g><g><path style="opacity:1" fill="#e5aa30" d="M57.398 32.281q0.319 0.095 0.642 0.193 0.089 0.115 0.064 0.257a6.617 6.617 0 0 1 -0.707 0.193q0.028 -0.171 0.128 -0.321a20.493 20.493 0 0 1 -0.128 -0.321"/></g><g><path style="opacity:1" fill="#67230b" d="M57.655 32.537q0.154 -0.018 0.257 0.096 -0.189 0.081 -0.257 -0.096"/></g><g><path style="opacity:1" fill="#61140a" d="M52.901 33.244q-0.149 0.077 -0.321 0.064a1.188 1.188 0 0 1 0.032 -0.385q0.174 -0.124 0.225 -0.321a1.114 1.114 0 0 0 0.45 -0.225q0.128 -0.064 0.257 0 -0.506 0.152 -0.482 0.675 -0.036 0.139 -0.161 0.193"/></g><g><path style="opacity:1" fill="#651a06" d="M22.323 32.666q0.08 0.432 0.096 0.899a0.287 0.287 0 0 0 0.096 0.128 0.44 0.44 0 0 1 0.257 -0.064q-0.025 0.344 -0.385 0.257 -0.201 -1.273 -0.257 0.064 -0.092 -0.149 -0.064 -0.321a1.188 1.188 0 0 0 -0.032 -0.385q-0.117 0.237 -0.128 0.514 -0.096 0.262 -0.321 0.128 -0.128 0.235 -0.225 0l0.128 -0.193q0.111 -0.119 0.225 0l0.128 -0.128q0.048 -0.449 0.032 -0.899 0.096 0.008 0.161 -0.064a0.662 0.662 0 0 1 0.096 -0.257 0.633 0.633 0 0 1 0.064 0.385q-0.113 -0.021 -0.193 0.064 0.115 0.089 0.257 0.064 -0.023 -0.124 0.064 -0.193"/></g><g><path style="opacity:1" fill="#5f1308" d="M39.09 33.18q0.001 0.255 -0.257 0.257 -0.324 -0.114 -0.578 -0.353 -0.869 -0.068 0.032 -0.225 0.458 0.04 0.803 0.321"/></g><g><path style="opacity:1" fill="#5a0b06" d="M54.058 33.244q-0.346 0.236 -0.642 0 0.463 -0.565 1.156 -0.289 -0.334 0.022 -0.514 0.289"/></g><g><path style="opacity:1" fill="#e1a827" d="M57.398 33.244h0.707v0.193h-0.578q-0.076 0.107 -0.096 0.257a1.606 1.606 0 0 1 -0.032 -0.45"/></g><g><path style="opacity:1" fill="#985119" d="M57.398 33.244q-0.016 0.227 0.032 0.45 0.02 -0.15 0.096 -0.257v0.321h-0.193q-0.03 -0.278 0.064 -0.514"/></g><g><path style="opacity:1" fill="#5d0f07" d="M53.223 33.758q0.163 0.018 0.257 0.161 1.001 0.032 0 0.225 -0.33 0.038 -0.61 -0.128 -0.066 -0.124 0.032 -0.225a0.829 0.829 0 0 1 0.321 -0.032"/></g><g><path style="opacity:1" fill="#5e1108" d="m38.769 34.143 -0.257 -0.128q0.128 -0.107 0.289 0a1.31 1.31 0 0 0 0.418 -0.225q0.294 -0.083 0.514 0.128a0.572 0.572 0 0 1 -0.257 0.193 3.919 3.919 0 0 1 -0.707 0.032"/></g><g><path style="opacity:1" fill="#e2a72b" d="M13.844 33.501q0.169 0.101 0.128 0.321h0.193q0.032 -0.514 0.064 0h0.257q-0.027 -0.172 0.064 -0.321a1.086 1.086 0 0 1 0.064 0.514h-0.771z"/></g><g><path style="opacity:1" fill="#5b0b05" d="m39.604 34.593 -0.514 -0.257q0.298 -0.007 0.642 -0.032 0.418 -0.321 0.835 0 -0.104 0.197 -0.321 0.257 -0.32 0.048 -0.642 0.032"/></g><g><path style="opacity:1" fill="#5d0e06" d="M53.415 34.272q-0.09 0.142 -0.257 0.193 -0.432 0.181 -0.899 0.096 -0.638 -0.333 0.096 -0.482 0.229 0.068 0.418 0.225 0.325 0.052 0.642 -0.032"/></g><g><path style="opacity:1" fill="#ecb039" d="M13.844 34.272q0.161 0.066 0.128 0.257 1.285 0.064 0 0.128 0.025 0.142 -0.064 0.257a1.664 1.664 0 0 1 -0.064 -0.642"/></g><g><path style="opacity:1" fill="#e6a935" d="M57.463 34.465q0.084 -0.013 0.128 0.064 -0.114 0.164 0 0.321a1.317 1.317 0 0 0 0.193 -0.353q0.328 -0.119 0.321 0.225 0.015 0.175 -0.128 0.257 -0.006 -0.185 -0.064 -0.385a1.317 1.317 0 0 0 -0.193 0.353 0.829 0.829 0 0 1 -0.321 0.032q-0.021 -0.268 0.064 -0.514"/></g><g><path style="opacity:1" fill="#ecb72b" d="M32.216 39.604a59.679 59.679 0 0 0 -2.762 -0.193 286.06 286.06 0 0 0 0.321 -5.332q0.127 -0.016 0.225 0.064a218.415 218.415 0 0 1 2.409 5.428 0.317 0.317 0 0 1 -0.193 0.032"/></g><g><path style="opacity:1" fill="#e7ae2f" d="M39.09 33.18q0.09 0.103 0.064 0.257 0.22 0.009 0.385 0.128 2.774 1.156 4.722 3.469a8.004 8.004 0 0 1 0.867 1.413q-0.146 -0.001 -0.225 -0.128 -0.139 0.16 -0.353 0.128 0.181 -0.068 0.321 -0.225l-0.385 -0.385a8.672 8.672 0 0 0 -1.413 -0.128 2.634 2.634 0 0 1 -0.385 -0.289q-0.239 -0.114 -0.193 -0.385 0.613 0.434 1.349 0.418a1.426 1.426 0 0 0 0.385 -0.161 1.837 1.837 0 0 0 -0.514 -0.482l-1.092 -0.064q-0.931 -0.432 0.064 -0.289 0.992 0.093 0.321 -0.546 -0.561 -0.151 -1.124 0.032 -0.246 0.013 -0.418 -0.161 0.503 -0.002 0.964 -0.193 0.118 -0.153 -0.064 -0.257 -0.244 -0.177 -0.546 -0.161a3.366 3.366 0 0 0 -0.803 0.193q-0.292 -0.033 -0.514 -0.225 0.581 0.047 0.964 -0.385 -0.312 -0.254 -0.707 -0.193 -0.489 0.371 -1.028 0.096 -0.058 0.012 -0.064 0.064 -0.081 -0.033 -0.064 -0.128 0.323 0.016 0.642 -0.032 0.217 -0.06 0.321 -0.257 -0.418 -0.321 -0.835 0 -0.344 0.025 -0.642 0.032 -0.208 -0.021 -0.321 -0.193a3.919 3.919 0 0 0 0.707 -0.032 0.572 0.572 0 0 0 0.257 -0.193q-0.22 -0.211 -0.514 -0.128a1.31 1.31 0 0 1 -0.418 0.225q-0.162 -0.107 -0.289 0a1.047 1.047 0 0 1 -0.257 -0.128q0.348 -0.156 0.578 -0.45 0.258 -0.002 0.257 -0.257"/></g><g><path style="opacity:1" fill="#823a0a" d="M32.537 39.668q-0.184 0.027 -0.321 -0.064a0.317 0.317 0 0 0 0.193 -0.032 218.415 218.415 0 0 0 -2.409 -5.428q-0.097 -0.081 -0.225 -0.064a286.06 286.06 0 0 1 -0.321 5.332h-0.064q-0.016 -2.666 0.032 -5.332 0.198 -0.393 0.128 -0.835l-0.064 0.064a2.724 2.724 0 0 1 -0.096 0.546q-0.231 0.078 -0.45 -0.032 0.085 -0.272 0.321 -0.128a0.437 0.437 0 0 0 0.096 -0.193q0.013 -0.84 0.032 -1.67a5.435 5.435 0 0 1 -0.803 0.128q-0.96 -0.265 -1.959 -0.161a1.208 1.208 0 0 0 -0.45 0.161v-0.578q1.251 -0.596 2.377 0.225 0.533 0.114 0.964 -0.225a2.698 2.698 0 0 0 0.546 0.193q0.084 0.241 -0.128 0.385l-0.128 -0.128q-0.495 0.484 0.161 0.45a1.221 1.221 0 0 1 -0.193 0.321 16.895 16.895 0 0 1 0.161 1.028q0.128 0.128 0.257 0a0.287 0.287 0 0 1 0.096 0.128q-0.128 0.138 -0.321 0.193a2.345 2.345 0 0 0 0.418 0.064 912.976 912.976 0 0 0 2.152 5.653"/></g><g><path style="opacity:1" fill="#d29336" d="M29.711 33.244q0.238 0.361 0.032 0.771a4.651 4.651 0 0 1 -0.032 -0.771"/></g><g><path style="opacity:1" fill="#823a0a" d="M22.516 34.015q0.19 -0.023 0.353 0.064a126.424 126.424 0 0 1 1.863 5.139 528.116 528.116 0 0 1 -2.281 -5.107q0.054 -0.037 0.064 -0.096"/></g><g><path style="opacity:1" fill="#db9f2d" d="M57.591 35.3q0.68 -0.075 0.482 0.578 -0.114 0.198 -0.225 0.032 0.318 -0.535 -0.321 -0.418 -0.016 0.232 0.128 0.418 -0.034 0.121 -0.128 0.064 -0.401 -0.385 0.064 -0.675"/></g><g><path style="opacity:1" fill="#e1a336" d="M13.844 35.236q0.323 -0.016 0.642 0.032 0.257 0.257 0 0.514 -0.326 0.079 -0.642 -0.032a1.355 1.355 0 0 1 0.578 -0.064v-0.321q-0.338 0.053 -0.578 -0.128"/></g><g><path style="opacity:1" fill="#e7ae2f" d="M53.415 33.244q0.297 0.236 0.642 0 -0.017 0.41 -0.385 0.193a1.33 1.33 0 0 0 -0.45 0.096q-0.114 0.11 0 0.225a0.829 0.829 0 0 0 -0.321 0.032q-0.098 0.101 -0.032 0.225 0.28 0.166 0.61 0.128 0.017 0.096 -0.064 0.128a1.529 1.529 0 0 1 -0.642 0.032q-0.188 -0.157 -0.418 -0.225 -0.734 0.149 -0.096 0.482 0.468 0.085 0.899 -0.096 -0.095 0.184 -0.321 0.193a3.495 3.495 0 0 1 -0.514 0.128 6.296 6.296 0 0 0 -0.739 -0.257 1.266 1.266 0 0 0 -0.418 0.096q-0.131 0.187 0.064 0.321 0.356 0.19 0.771 0.193 -0.674 0.309 -1.349 -0.032 -0.378 0.073 -0.642 0.353 0.444 0.361 1.028 0.321a1.163 1.163 0 0 1 -0.418 0.161q-0.564 -0.198 -1.124 -0.032l-0.289 0.289q-0.066 0.08 0.032 0.128l0.193 0.096q0.457 0.052 0.899 0a0.931 0.931 0 0 1 -0.321 0.257l-1.156 0.064q-0.386 0.208 -0.514 0.61 1.075 0.237 1.863 -0.514 -0.056 0.273 -0.257 0.45 0.006 -0.042 -0.032 -0.064a1.3 1.3 0 0 1 -0.482 0.482 14.069 14.069 0 0 1 -1.221 0q-0.369 0.192 -0.578 0.546l-0.257 0.128q1.283 -2.263 3.469 -3.694a32.248 32.248 0 0 1 1.67 -0.931q0.141 -0.119 0.321 -0.193a2.762 2.762 0 0 0 0.321 -0.096q-0.207 -0.072 -0.032 -0.161a0.597 0.597 0 0 1 0.161 0.128 2.827 2.827 0 0 1 0.128 -0.193"/></g><g><path style="opacity:1" fill="#5b0b05" d="M42.495 37.034q-0.336 -0.288 -0.482 -0.707a3.039 3.039 0 0 1 -0.803 -0.675q-0.526 -0.142 -0.835 -0.578a2.73 2.73 0 0 1 -0.707 -0.353q0.006 -0.052 0.064 -0.064 0.539 0.274 1.028 -0.096 0.395 -0.061 0.707 0.193 -0.383 0.432 -0.964 0.385 0.222 0.191 0.514 0.225a3.366 3.366 0 0 1 0.803 -0.193q0.302 -0.017 0.546 0.161 0.182 0.104 0.064 0.257 -0.46 0.191 -0.964 0.193 0.171 0.174 0.418 0.161 0.563 -0.183 1.124 -0.032 0.671 0.639 -0.321 0.546 -0.996 -0.143 -0.064 0.289l1.092 0.064a1.837 1.837 0 0 1 0.514 0.482 1.426 1.426 0 0 1 -0.385 0.161q-0.736 0.016 -1.349 -0.418"/></g><g><path style="opacity:1" fill="#5b0b06" d="M52.837 34.657q-0.272 0.249 -0.642 0.353a33.405 33.405 0 0 0 -1.606 1.221 6.039 6.039 0 0 1 -0.385 0.61q-0.788 0.751 -1.863 0.514 0.128 -0.402 0.514 -0.61l1.156 -0.064a0.931 0.931 0 0 0 0.321 -0.257q-0.442 0.052 -0.899 0l-0.193 -0.096q-0.098 -0.048 -0.032 -0.128l0.289 -0.289q0.56 -0.165 1.124 0.032a1.163 1.163 0 0 0 0.418 -0.161q-0.584 0.04 -1.028 -0.321 0.264 -0.28 0.642 -0.353 0.675 0.341 1.349 0.032 -0.415 -0.003 -0.771 -0.193 -0.195 -0.134 -0.064 -0.321a1.266 1.266 0 0 1 0.418 -0.096 6.296 6.296 0 0 1 0.739 0.257 3.495 3.495 0 0 0 0.514 -0.128"/></g><g><path style="opacity:1" fill="#843c0a" d="M29.004 34.015q0.486 0.031 0.225 0.45a382.934 382.934 0 0 0 -2.248 5.011q-0.064 -0.096 0 -0.193a262.484 262.484 0 0 0 2.024 -5.268"/></g><g><path style="opacity:1" fill="#d08f3b" d="M57.334 36.263h0.771v0.193h-0.771z"/></g><g><path style="opacity:1" fill="#d9993f" d="M13.844 36.135q0.149 0.031 0.128 0.193h0.642v0.193h-0.642q0.021 0.113 -0.064 0.193a1.355 1.355 0 0 1 -0.064 -0.578"/></g><g><path style="opacity:1" fill="#ebae3c" d="M57.398 36.777h0.707a1.086 1.086 0 0 1 -0.064 0.514 0.633 0.633 0 0 1 -0.064 -0.385h-0.193q-0.032 0.642 -0.064 0h-0.257a0.829 0.829 0 0 1 -0.032 0.321 1.606 1.606 0 0 1 -0.032 -0.45"/></g><g><path style="opacity:1" fill="#ebb42d" d="M39.54 32.537q0.173 -0.013 0.321 0.064 0.218 0.105 0.353 0.321 -0.02 0.604 0.482 0.899 0.188 -0.149 0.096 -0.385 -0.114 -0.386 -0.418 -0.642 0.284 -0.02 0.514 -0.193 0.242 0.121 0.482 0 0.332 0.131 -0.032 0.128v0.193a0.317 0.317 0 0 1 0.193 0.032q-0.081 0.097 -0.064 0.225a3.34 3.34 0 0 1 0.642 -0.161q0.211 0.184 0.128 0.418 -0.165 -0.163 -0.385 -0.161 0.278 0.182 0.418 0.482 -0.173 0.889 0.578 1.349 0.231 -0.64 -0.128 -1.221a4.111 4.111 0 0 1 -0.418 -0.45q0.485 -0.016 0.707 0.385 -0.089 -0.077 -0.193 -0.032 0.748 0.487 0.45 1.349 0.03 0.416 0.385 0.642 0.124 0.066 0.225 -0.032 0.048 -0.416 0.032 -0.835 -0.007 -0.147 0.128 -0.193 0.166 0.169 0.289 0.385 0.065 0.511 -0.096 0.996 0.003 0.485 0.418 0.739 0.168 -0.117 0.193 -0.321 0.082 -0.528 -0.096 -1.028 0.141 -0.114 0.257 0 0.239 0.383 0.321 0.835a4.516 4.516 0 0 0 -0.257 0.899q0.03 0.413 0.321 0.707 0.237 -0.124 0.289 -0.385 0.076 -0.554 -0.032 -1.092 0.177 0.196 0.257 0.482 -0.072 0.207 -0.032 0.418l0.128 -0.257a1.728 1.728 0 0 1 0.225 0.385q0.11 -0.185 0.032 -0.385l-0.064 0.064q-0.048 -0.112 -0.161 -0.161a0.234 0.234 0 0 0 0.064 -0.096q-0.167 -0.227 -0.128 -0.514h0.193q-0.028 0.303 0.096 0.578a5.011 5.011 0 0 1 0 -0.642q0.056 0.298 0.257 0.514 0.019 -0.309 0.161 -0.578a0.358 0.358 0 0 0 0.193 0.064 4.317 4.317 0 0 0 -0.032 1.156q0.278 0.893 0.578 0l0.032 -0.289q-0.052 -0.478 -0.257 -0.899 -0.01 -0.214 0.128 -0.353a1.221 1.221 0 0 0 0.096 0.514q0.095 -0.065 0.225 0 0.078 0.22 0.257 0.385a3.565 3.565 0 0 0 0.353 -0.45q0.037 -0.621 -0.064 -1.221 0.117 -0.314 0.353 -0.546 -0.186 0.006 -0.321 0.161 -0.142 -0.202 0.096 -0.321a6.103 6.103 0 0 0 0.546 0q-0.421 0.646 -0.128 1.349 0.398 -0.157 0.482 -0.578a7.355 7.355 0 0 1 0 -0.964q0.231 -0.304 0.418 -0.514 0.23 -0.256 0.546 -0.45 0.074 0.007 0.096 0.064 -0.428 0.38 -0.675 0.899a1.619 1.619 0 0 0 0 0.642 0.287 0.287 0 0 0 0.096 0.128q0.318 -0.142 0.482 -0.45l0.064 -0.899q0.133 -0.213 0.353 -0.321 0.031 0.149 0.193 0.128 -0.169 0.335 -0.096 0.707 0.241 0.06 0.45 -0.128a4.522 4.522 0 0 0 0.257 -0.899 1.645 1.645 0 0 1 0.418 -0.353q-0.344 0.026 -0.642 0.225 -0.148 -0.221 0.064 -0.128 0.212 -0.15 0 -0.225a1.799 1.799 0 0 0 0.321 -0.096q0.266 0.156 0.578 0.193 -0.386 0.306 -0.45 0.803 0.001 0.135 0.096 0.225a1.381 1.381 0 0 0 0.385 -0.321q0.086 -0.357 0.193 -0.707a1.863 1.863 0 0 0 0.289 -0.193q0.082 -0.108 0.193 0 -0.051 0.197 -0.225 0.321a1.188 1.188 0 0 0 -0.032 0.385q0.173 0.013 0.321 -0.064 -0.021 0.119 -0.128 0.193 0.035 0.066 0.064 0.128 -0.18 0.074 -0.321 0.193 -3.845 1.549 -5.685 5.268a10.728 10.728 0 0 0 -0.578 1.734q-1.102 -4.22 -4.914 -6.392a29.422 29.422 0 0 0 -1.67 -0.803 3.379 3.379 0 0 0 0.45 -0.096q-0.276 0.003 -0.45 -0.161 0.116 0.071 0.257 0.064a1.188 1.188 0 0 0 -0.032 -0.385 3.662 3.662 0 0 0 -0.353 -0.45"/></g><g><path style="opacity:1" fill="#5d0e05" d="M42.238 33.437h0.064a4.111 4.111 0 0 0 0.418 0.45q0.359 0.58 0.128 1.221 -0.751 -0.46 -0.578 -1.349 -0.14 -0.3 -0.418 -0.482 0.22 -0.003 0.385 0.161"/></g><g><path style="opacity:1" fill="#5b0c05" d="M50.589 33.373q-0.22 0.108 -0.353 0.321l-0.064 0.899q-0.163 0.308 -0.482 0.45a0.287 0.287 0 0 1 -0.096 -0.128 1.619 1.619 0 0 1 0 -0.642q0.247 -0.52 0.675 -0.899 0.212 -0.139 0.45 -0.161 -0.085 0.068 -0.128 0.161"/></g><g><path style="opacity:1" fill="#601408" d="M39.861 32.602q0.28 0.044 0.514 0.193 0.304 0.257 0.418 0.642 0.091 0.237 -0.096 0.385 -0.502 -0.296 -0.482 -0.899 -0.135 -0.216 -0.353 -0.321"/></g><g><path style="opacity:1" fill="#5a0c04" d="m50.782 33.501 0.385 -0.45q0.299 -0.199 0.642 -0.225a1.645 1.645 0 0 0 -0.418 0.353 4.522 4.522 0 0 1 -0.257 0.899q-0.209 0.188 -0.45 0.128 -0.073 -0.372 0.096 -0.707"/></g><g><path style="opacity:1" fill="#5b0c06" d="M41.467 33.18q0.454 0.415 0.353 1.028 -0.296 0.068 -0.514 -0.193 0.066 -0.795 -0.61 -1.188 0.44 0.043 0.771 0.353"/></g><g><path style="opacity:1" fill="#5e1008" d="M52.645 32.602a1.863 1.863 0 0 1 -0.289 0.193 12.334 12.334 0 0 0 -0.193 0.707 1.381 1.381 0 0 1 -0.385 0.321q-0.095 -0.09 -0.096 -0.225 0.063 -0.497 0.45 -0.803a1.317 1.317 0 0 1 0.514 -0.193"/></g><g><path style="opacity:1" fill="#eeb23a" d="M13.844 37.034a1.998 1.998 0 0 1 0.707 0.064l-0.353 0.064q-0.221 -0.004 -0.353 -0.128"/></g><g><path style="opacity:1" fill="#853e0b" d="M21.424 34.079q0.226 0 0.385 0.161a565.953 565.953 0 0 0 -2.345 5.171q-0.064 -0.096 0 -0.193a150.321 150.321 0 0 0 1.959 -5.139"/></g><g><path style="opacity:1" fill="#e7af2f" d="M57.398 37.612a1.998 1.998 0 0 1 0.707 0.064 2.216 2.216 0 0 1 -0.385 0.353 1.298 1.298 0 0 1 0.385 0.096q-0.353 0.128 -0.707 0a1.019 1.019 0 0 1 0.385 -0.353q-0.246 0 -0.385 -0.161"/></g><g><path style="opacity:1" fill="#5c0d05" d="M49.946 37.291q-0.596 0.988 -1.734 1.156 -0.318 -0.015 -0.578 -0.193 0.209 -0.354 0.578 -0.546a14.069 14.069 0 0 0 1.221 0 1.3 1.3 0 0 0 0.482 -0.482q0.038 0.022 0.032 0.064"/></g><g><path style="opacity:1" fill="#5b0b06" d="M42.687 37.42a2.634 2.634 0 0 0 0.385 0.289q0.717 0.007 1.413 0.128l0.385 0.385q-0.14 0.157 -0.321 0.225 -1.225 0.014 -1.863 -1.028"/></g><g><path style="opacity:1" fill="#dfa32e" d="M13.844 37.484q0.149 0.031 0.128 0.193h0.642v0.193h-0.642q0.021 0.113 -0.064 0.193a1.355 1.355 0 0 1 -0.064 -0.578"/></g><g><path style="opacity:1" fill="#dea130" d="M57.527 38.512q0.272 -0.024 0.514 0.096 0.158 0.355 -0.128 0.61l-0.064 -0.096q0.318 -0.535 -0.321 -0.418a0.771 0.771 0 0 0 0.064 0.385q-0.075 0.117 -0.161 0 -0.09 -0.32 0.096 -0.578"/></g><g><path style="opacity:1" fill="#dea132" d="M13.908 38.383q0.096 -0.003 0.128 0.096 -0.101 0.152 0 0.289a3.919 3.919 0 0 1 0.193 -0.353q0.568 -0.035 0.289 0.482 -0.111 0.144 -0.161 -0.032 0.085 -0.68 -0.161 -0.032 -0.322 0.246 -0.353 -0.193a0.809 0.809 0 0 1 0.064 -0.257"/></g><g><path style="opacity:1" fill="#b36b3c" d="M13.844 39.283q0.366 -0.095 0.771 -0.064 0.023 0.124 -0.064 0.193 -0.307 -0.184 -0.707 -0.128"/></g><g><path style="opacity:1" fill="#7e340a" d="M22.388 33.887a2.916 2.916 0 0 0 -0.128 0.642 105.803 105.803 0 0 1 0.064 4.946 16.895 16.895 0 0 1 2.698 0.193q0.021 0.162 -0.128 0.193 -0.594 0.768 -1.542 1.06 -1.979 0.594 -3.597 -0.642a2.884 2.884 0 0 1 -0.45 -0.546q0.136 -0.126 0.321 -0.161a13.343 13.343 0 0 1 2.634 -0.161 995.203 995.203 0 0 1 -0.385 -5.043q0.052 -0.394 0.193 -0.739 -0.027 0.172 0.064 0.321 0.056 -1.337 0.257 -0.064"/></g><g><path style="opacity:1" fill="#7d3309" d="M29.39 39.411h0.064a59.679 59.679 0 0 1 2.762 0.193q0.137 0.092 0.321 0.064 -0.266 0.571 -0.835 0.867 -1.93 1.013 -3.919 0.128a3.347 3.347 0 0 1 -0.867 -0.803q-0.064 -0.096 0 -0.193 1.215 -0.277 2.473 -0.257"/></g><g><path style="opacity:1" fill="#dfa238" d="M58.105 39.54a1.086 1.086 0 0 1 -0.064 0.514 0.633 0.633 0 0 1 -0.064 -0.385h-0.193q-0.039 0.631 -0.193 0l-0.128 0.385q-0.058 -0.012 -0.064 -0.064v-0.45z"/></g><g><path style="opacity:1" fill="#eab036" d="M13.844 39.283q0.4 -0.056 0.707 0.128a2.075 2.075 0 0 0 -0.385 0.289 1.298 1.298 0 0 1 0.385 0.096 1.998 1.998 0 0 1 -0.707 0.064q-0.021 -0.113 0.064 -0.193a0.675 0.675 0 0 0 0.321 -0.225q-0.246 0 -0.385 -0.161"/></g><g><path style="opacity:1" fill="#9e5525" d="M58.105 39.54h-0.707v0.45q-0.094 -0.236 -0.064 -0.514 0.405 -0.031 0.771 0.064"/></g><g><path style="opacity:1" fill="#641404" d="M24.893 39.861q-1.416 0.512 -2.923 0.578 -1.301 -0.048 -2.473 -0.61 2.616 0.85 5.236 -0.032 0.103 0.003 0.161 0.064"/></g><g><path style="opacity:1" fill="#d69d24" d="M13.844 40.182h0.771v0.193h-0.771z"/></g><g><path style="opacity:1" fill="#631404" d="M32.152 39.797a0.317 0.317 0 0 1 0.193 0.032q-2.404 1.099 -4.882 0.193 1.751 0.336 3.533 0.128 0.616 -0.093 1.156 -0.353"/></g><g><path style="opacity:1" fill="#5f1207" d="M39.54 33.565h0.128a29.422 29.422 0 0 1 1.67 0.803q3.813 2.172 4.914 6.392a10.728 10.728 0 0 1 0.578 -1.734q1.84 -3.719 5.685 -5.268a32.248 32.248 0 0 0 -1.67 0.931q-2.186 1.431 -3.469 3.694 -0.508 0.918 -0.739 1.927 0.706 -0.904 1.831 -0.931 -1.702 0.529 -2.056 2.281h-0.321q-0.321 -1.879 -2.184 -2.281 1.203 -0.017 1.959 0.931 -0.112 -0.657 -0.385 -1.285a6.296 6.296 0 0 0 -0.353 -0.578 8.004 8.004 0 0 0 -0.867 -1.413q-1.947 -2.313 -4.722 -3.469"/></g><g><path style="opacity:1" fill="#5b0b06" d="M47.313 35.942q-0.139 0.139 -0.128 0.353 0.205 0.422 0.257 0.899l-0.032 0.289q-0.3 0.893 -0.578 0a4.317 4.317 0 0 1 0.032 -1.156q0.204 -0.455 0.578 -0.803 0.064 -0.064 0.128 0a1.426 1.426 0 0 0 -0.257 0.418"/></g><g><path style="opacity:1" fill="#590804" d="M45 35.492q0.44 0.398 0.642 0.964 0.108 0.538 0.032 1.092 -0.052 0.261 -0.289 0.385 -0.292 -0.294 -0.321 -0.707a4.516 4.516 0 0 1 0.257 -0.899q-0.082 -0.453 -0.321 -0.835"/></g><g><path style="opacity:1" fill="#590904" d="M44.743 35.492q0.178 0.499 0.096 1.028 -0.025 0.204 -0.193 0.321 -0.414 -0.254 -0.418 -0.739 0.161 -0.485 0.096 -0.996 -0.123 -0.216 -0.289 -0.385 -0.142 -0.155 0.064 -0.096 0.428 0.359 0.642 0.867"/></g><g><path style="opacity:1" fill="#5c0c05" d="M47.634 36.456q-0.055 -0.96 0.578 -1.67 0.135 -0.155 0.321 -0.161 -0.237 0.232 -0.353 0.546 0.101 0.6 0.064 1.221a3.565 3.565 0 0 1 -0.353 0.45q-0.179 -0.166 -0.257 -0.385"/></g><g><path style="opacity:1" fill="#5d0f06" d="M49.625 33.758q-0.186 0.21 -0.418 0.514a7.355 7.355 0 0 0 0 0.964q-0.084 0.421 -0.482 0.578 -0.292 -0.703 0.128 -1.349 0.267 -0.486 0.771 -0.707"/></g><g><path style="opacity:1" fill="#5e0f09" d="M43.009 33.822q0.598 0.436 0.899 1.092a5.46 5.46 0 0 1 -0.032 0.835q-0.101 0.098 -0.225 0.032 -0.355 -0.226 -0.385 -0.642 0.298 -0.862 -0.45 -1.349 0.104 -0.045 0.193 0.032"/></g><g><path style="opacity:1" fill="#ecb52d" d="M57.27 41.21q1.076 -0.095 1.06 0.964 -0.367 0.904 -1.253 0.482 -0.721 -0.853 0.193 -1.445"/></g><g><path style="opacity:1" fill="#ecb62c" d="M14.743 41.788q0.731 -0.029 0.996 0.642 -0.003 1.126 -1.124 0.931 -0.633 -0.352 -0.418 -1.06 0.202 -0.347 0.546 -0.514"/></g><g><path style="opacity:1" fill="#7c310a" d="M26.178 40.953q0.329 0.166 0.064 0.418 0.888 0.033 1.734 0.289 0.085 0.08 0.064 0.193 0.182 -0.02 0.289 0.128a1.959 1.959 0 0 1 0 0.707 1.747 1.747 0 0 1 -0.61 0.225 23.833 23.833 0 0 1 -3.276 0.064 2.666 2.666 0 0 1 -0.899 -0.193q-0.12 -0.18 -0.128 -0.418l0.032 -0.385q0.461 -0.543 1.188 -0.546l0.899 -0.064q-0.103 -0.071 -0.128 -0.193a1.349 1.349 0 0 1 0.193 -0.289 275.589 275.589 0 0 0 0.064 -8.415h0.45q-0.032 4.256 0.064 8.48"/></g><g><path style="opacity:1" fill="#611104" d="M23.48 42.302q0.006 -0.052 0.064 -0.064 0.552 0.23 1.156 0.225 1.511 0.047 3.019 0a9.315 9.315 0 0 1 -1.381 0.353 257.28 257.28 0 0 0 -2.088 -0.161 3.52 3.52 0 0 1 -0.771 -0.353"/></g><g><path style="opacity:1" fill="#5e0b02" d="M28.041 41.852q0.027 0.172 -0.064 0.321a4.946 4.946 0 0 1 -0.771 0.161 26.981 26.981 0 0 1 -2.634 0 12.27 12.27 0 0 1 -0.707 -0.128q-0.185 -0.171 -0.096 -0.418 2.129 0.096 4.272 0.064"/></g><g><path style="opacity:1" fill="#e1a631" d="M55.792 43.201q0.364 0.174 0.514 0.578 -0.096 0.128 -0.193 0a3.854 3.854 0 0 1 -0.321 -0.578"/></g><g><path style="opacity:1" fill="#e6aa31" d="M16.478 43.33q0.295 -0.119 0.514 0.161a8.994 8.994 0 0 0 -0.385 0.61q-0.23 -0.082 -0.385 -0.257 0.16 -0.07 0.321 0.064l0.064 -0.096q-0.406 -0.379 0.064 -0.161 0.121 -0.269 -0.193 -0.321"/></g><g><path style="opacity:1" fill="#e5a733" d="M17.248 43.715q0.648 0.055 0.353 0.642 -0.408 0.304 -0.61 -0.161l0.064 -0.096q0.202 0.336 0.482 0.064 0.069 -0.18 -0.096 -0.289 -0.14 0.025 -0.257 -0.032 0.035 -0.066 0.064 -0.128"/></g><g><path style="opacity:1" fill="#e3a82f" d="M55.471 43.394q0.317 0.279 0.385 0.707a19.336 19.336 0 0 0 -0.578 -0.161q0.25 0.185 0.096 0.418 -0.231 -0.333 -0.353 -0.707 0.296 0.086 0.578 0.161 -0.211 -0.184 -0.128 -0.418"/></g><g><path style="opacity:1" fill="#e1a52f" d="M54.443 43.972a0.633 0.633 0 0 1 0.385 0.064q-0.227 0.049 -0.385 0.193 0.22 0.066 0.45 0.032 0.269 0.381 -0.225 0.482 -0.102 -0.013 -0.161 -0.096a1.863 1.863 0 0 1 0.321 -0.161 16.767 16.767 0 0 0 -0.482 -0.128q-0.072 -0.225 0.096 -0.385"/></g><g><path style="opacity:1" fill="#e5ab32" d="M18.019 44.165h0.193a1.221 1.221 0 0 0 0.096 0.514 1.67 1.67 0 0 1 0.225 -0.321l0.064 0.096a8.737 8.737 0 0 1 -0.353 0.61 3.45 3.45 0 0 1 -0.161 -0.578 2.081 2.081 0 0 0 -0.193 0.289q-0.095 0.057 -0.128 -0.064a3.597 3.597 0 0 0 0.257 -0.546"/></g><g><path style="opacity:1" fill="#e2a532" d="M53.094 44.807q0.322 0.195 0.45 0.578 -0.132 0.105 -0.225 -0.064a2.717 2.717 0 0 1 -0.225 -0.514"/></g><g><path style="opacity:1" fill="#e6aa34" d="M53.672 44.422q0.146 0.001 0.225 0.128 0.052 0.228 0.225 0.385 0.107 -0.105 0.193 0a2.634 2.634 0 0 0 -0.45 0.321l-0.064 -0.064a0.713 0.713 0 0 0 0.128 -0.225 2.12 2.12 0 0 1 -0.257 -0.546"/></g><g><path style="opacity:1" fill="#dfa331" d="M18.919 44.55q0.222 0.144 0.45 0.289a3.051 3.051 0 0 1 -0.418 0.61q-0.846 -0.418 0.032 -0.193 -0.023 -0.238 -0.257 -0.321 0.18 -0.112 0.321 0.064l0.064 -0.096a0.964 0.964 0 0 0 -0.257 -0.225q0.035 -0.066 0.064 -0.128"/></g><g><path style="opacity:1" fill="#e1a533" d="M19.625 45q0.084 -0.013 0.128 0.064a2.435 2.435 0 0 1 -0.385 0.642q-0.104 -0.083 -0.032 -0.193a4.111 4.111 0 0 1 0.289 -0.514"/></g><g><path style="opacity:1" fill="#e2a632" d="M52.516 45.128q0.096 -0.008 0.161 0.064a2.325 2.325 0 0 0 0.257 0.45q0.114 -0.119 0.225 0l-0.321 0.225q-0.324 0.036 -0.064 -0.161a3.405 3.405 0 0 1 -0.257 -0.578"/></g><g><path style="opacity:1" fill="#d99c2f" d="M20.011 45.321q0.629 -0.025 0.418 0.578 -0.321 0.385 -0.642 0 -0.075 -0.139 0.032 -0.257 0.155 0.079 0.128 0.257 0.462 0.062 0.321 -0.353a0.944 0.944 0 0 1 -0.321 -0.096q0.035 -0.066 0.064 -0.128"/></g><g><path style="opacity:1" fill="#e2a632" d="M51.745 45.578a1.188 1.188 0 0 1 0.385 0.032 5.203 5.203 0 0 1 0.257 0.482q-0.048 0.098 -0.128 0.032l-0.257 -0.385q-0.203 -0.082 -0.257 0.128 0.128 0.223 0.257 0.45a0.287 0.287 0 0 1 -0.128 0.096q-0.393 -0.385 -0.128 -0.835"/></g><g><path style="opacity:1" fill="#e4a830" d="M20.846 45.771q0.439 -0.011 0.385 0.385 -0.098 -0.257 -0.321 -0.128 0.243 0.17 0.161 0.45 -0.318 0.149 -0.482 -0.161l0.064 -0.096q0.098 0.257 0.321 0.128 -0.286 -0.243 -0.128 -0.578"/></g><g><path style="opacity:1" fill="#e1a432" d="M50.332 46.413q0.113 -0.021 0.193 0.064a6.938 6.938 0 0 1 0.321 0.546 3.854 3.854 0 0 0 -0.418 0.225l-0.096 -0.064a0.964 0.964 0 0 0 0.257 -0.225l-0.064 -0.096q-0.588 0.23 -0.064 -0.161 -0.168 -0.176 -0.321 0.032l-0.064 -0.064q0.101 -0.165 0.257 -0.257"/></g><g><path style="opacity:1" fill="#e1a434" d="M50.974 46.028q0.192 0.194 0.321 0.45 0.165 0.048 0.321 0.064a214.047 214.047 0 0 0 -0.514 0.321l-0.064 -0.064a0.713 0.713 0 0 0 0.128 -0.225 4.24 4.24 0 0 0 -0.257 -0.418q0.035 -0.066 0.064 -0.128"/></g><g><path style="opacity:1" fill="#e2a431" d="M21.938 46.349q0.267 0.053 0.45 0.257a4.028 4.028 0 0 1 -0.385 0.578q-0.104 -0.083 -0.032 -0.193l0.225 -0.353q-0.206 -0.084 -0.257 -0.289"/></g><g><path style="opacity:1" fill="#e0a430" d="M49.111 47.12q0.703 0.013 0.45 0.675 -0.684 0.261 -0.61 -0.482a0.675 0.675 0 0 0 0.161 -0.193"/></g><g><path style="opacity:1" fill="#e5aa2f" d="M22.645 46.799q0.153 0.11 0.257 0.289a1.375 1.375 0 0 1 0.321 0l-0.45 0.45a0.54 0.54 0 0 1 -0.257 0.032q0.023 -0.396 0.128 -0.771"/></g><g><path style="opacity:1" fill="#6e2a15" d="M22.709 47.12q0.238 0.083 0.032 0.257a0.54 0.54 0 0 1 -0.032 -0.257"/></g><g><path style="opacity:1" fill="#5e1208" d="M49.111 47.313q0.544 -0.018 0.257 0.418 -0.255 -0.012 -0.321 -0.289 0.035 -0.066 0.064 -0.128"/></g><g><path style="opacity:1" fill="#e5aa32" d="M48.405 47.57q0.37 0.142 0.45 0.546a1.163 1.163 0 0 1 -0.353 0.289l-0.096 -0.096q0.174 -0.061 0.257 -0.225 -0.184 -0.053 -0.385 -0.032a0.951 0.951 0 0 0 0.257 -0.225q-0.109 -0.108 -0.128 -0.257"/></g><g><path style="opacity:1" fill="#e3a833" d="M23.48 47.313q0.859 0.11 0.257 0.739 -0.502 0.124 -0.385 -0.353 0.164 0.458 0.418 0.064 0.12 -0.375 -0.225 -0.257 0.105 0.107 0 0.193 -0.35 -0.139 -0.064 -0.385"/></g><g><path style="opacity:1" fill="#e0a430" d="M24.315 47.698a1.683 1.683 0 0 1 0.45 0.321 4.028 4.028 0 0 1 -0.385 0.578q-0.23 -0.082 -0.385 -0.257 0.16 -0.07 0.321 0.064l0.064 -0.096a38.865 38.865 0 0 1 -0.193 -0.225 2.634 2.634 0 0 1 0.353 0q-0.132 -0.164 -0.225 -0.385"/></g><g><path style="opacity:1" fill="#e0a52e" d="M25.021 48.148q0.261 0.034 0.385 0.257a2.3 2.3 0 0 1 -0.321 0.578l-0.064 -0.096 0.193 -0.45a7.452 7.452 0 0 1 -0.193 -0.289"/></g><g><path style="opacity:1" fill="#e1a334" d="M47.377 48.148q0.096 -0.008 0.161 0.064a2.325 2.325 0 0 0 0.257 0.45q0.054 0.118 -0.064 0.193a3.34 3.34 0 0 0 -0.353 -0.514q-0.141 0.177 -0.321 0.064a29.293 29.293 0 0 1 0.321 -0.257"/></g><g><path style="opacity:1" fill="#e2a631" d="M26.37 48.919q0.096 -0.003 0.128 0.096a3.212 3.212 0 0 1 -0.321 0.514q-0.256 0.006 -0.45 -0.193 0.148 -0.048 0.289 0.032l0.096 -0.064a0.964 0.964 0 0 0 -0.193 -0.225q0.148 -0.048 0.289 0.032 0.126 -0.061 0.161 -0.193"/></g><g><path style="opacity:1" fill="#dda030" d="M46.734 48.533q0.275 0.243 0.385 0.61 -0.123 0.2 -0.353 0.289l-0.096 -0.096a0.951 0.951 0 0 0 0.257 -0.225q-0.184 -0.053 -0.385 -0.032a1.278 1.278 0 0 1 0.257 -0.225l-0.032 -0.064q-0.197 0.036 -0.418 0a33.726 33.726 0 0 0 0.385 -0.257"/></g><g><path style="opacity:1" fill="#e7ab36" d="M45.835 49.047q0.604 -0.013 0.482 0.578 -0.199 0.303 -0.482 0.096 0.69 -0.109 0.128 -0.546a0.421 0.421 0 0 0 -0.193 0.193q0.39 0.045 -0.032 0.257 -0.221 -0.346 0.096 -0.578"/></g><g><path style="opacity:1" fill="#e2a632" d="M26.756 49.24q0.561 -0.033 0.482 0.514 -0.282 0.456 -0.642 0.064 -0.103 -0.347 0.161 -0.578"/></g><g><path style="opacity:1" fill="#611609" d="M26.884 49.368q0.344 -0.009 0.225 0.321 -0.244 0.271 -0.418 -0.032a1.349 1.349 0 0 1 0.193 -0.289"/></g><g><path style="opacity:1" fill="#e5ab2f" d="M45.193 49.433q0.111 0.028 0.128 0.161a2.634 2.634 0 0 1 0.064 0.675q-0.387 -0.176 -0.707 -0.482 0.442 0.065 0.514 -0.353"/></g><g><path style="opacity:1" fill="#7c3d0a" d="M45.128 49.818q0.178 0.068 0.096 0.257 -0.194 -0.103 -0.096 -0.257"/></g><g><path style="opacity:1" fill="#e2a534" d="M27.976 49.882q0.297 0.004 0.45 0.257 -0.122 0.342 -0.385 0.578l-0.385 -0.257q0.16 -0.07 0.321 0.064a0.287 0.287 0 0 0 0.128 -0.096q-0.523 -0.391 0.064 -0.161l0.064 -0.096q-0.16 -0.125 -0.257 -0.289"/></g><g><path style="opacity:1" fill="#dfa330" d="M44.293 49.946q0.113 -0.021 0.193 0.064a6.938 6.938 0 0 1 0.321 0.546q-0.096 0.064 -0.193 0 -0.103 -0.256 -0.321 -0.418l-0.193 0.128 -0.064 -0.064q0.132 -0.129 0.257 -0.257"/></g><g><path style="opacity:1" fill="#e1a531" d="M28.876 50.396q0.096 -0.003 0.128 0.096 -0.128 0.223 -0.257 0.45l0.193 0.161 -0.064 0.064q-0.293 -0.114 -0.514 -0.321 0.117 -0.057 0.257 -0.032a2.486 2.486 0 0 0 0.257 -0.418"/></g><g><path style="opacity:1" fill="#e1a42f" d="M43.201 50.589q0.191 -0.011 0.321 0.128l-0.385 0.128 0.514 0.128q0.117 0.227 -0.128 0.353 -0.612 0.022 -0.032 -0.161 0.057 -0.095 -0.064 -0.128 -0.517 0.221 -0.385 -0.321 0.096 -0.055 0.161 -0.128"/></g><g><path style="opacity:1" fill="#e2a731" d="M29.454 50.782q0.387 -0.032 0.514 0.321a1.619 1.619 0 0 1 -0.321 0.514l-0.064 -0.096a1.24 1.24 0 0 0 0.193 -0.418q-0.035 -0.268 -0.257 -0.128a2.827 2.827 0 0 1 -0.193 0.353q-0.109 0.072 -0.193 -0.032 0.162 -0.26 0.321 -0.514"/></g><g><path style="opacity:1" fill="#e5a935" d="M42.302 51.103q0.658 -0.065 0.546 0.578 -0.214 0.204 -0.482 0.064 0.578 -0.02 0.257 -0.482a0.54 0.54 0 0 0 -0.257 -0.032q0.003 0.358 -0.193 0.128 0.024 -0.152 0.128 -0.257"/></g><g><path style="opacity:1" fill="#e0a633" d="M41.66 51.488q0.113 -0.021 0.193 0.064a6.938 6.938 0 0 1 0.321 0.546 0.287 0.287 0 0 1 -0.128 0.096 5.653 5.653 0 0 1 -0.385 -0.707"/></g><g><path style="opacity:1" fill="#e2a92e" d="M30.418 51.295q0.113 -0.021 0.193 0.064a5.139 5.139 0 0 1 -0.257 0.482 0.597 0.597 0 0 0 0.128 0.161q-0.314 0.036 -0.514 -0.257 0.104 -0.024 0.257 -0.032a1.233 1.233 0 0 0 0.193 -0.418"/></g><g><path style="opacity:1" fill="#e3a734" d="M31.06 51.617q0.096 -0.003 0.128 0.096a8.737 8.737 0 0 1 -0.353 0.61 0.287 0.287 0 0 1 -0.096 -0.128 3.829 3.829 0 0 0 0.321 -0.578"/></g><g><path style="opacity:1" fill="#e0a330" d="M41.274 51.745q0.322 0.171 0.45 0.546 -0.132 0.212 -0.385 0.289 -0.098 -0.048 -0.032 -0.128 0.143 -0.063 0.225 -0.193 -0.184 -0.053 -0.385 -0.032l0.257 -0.193q-0.178 -0.164 -0.353 0.032l-0.032 -0.096q0.114 -0.136 0.257 -0.225"/></g><g><path style="opacity:1" fill="#e1a532" d="M31.638 51.938q0.096 -0.003 0.128 0.096a3.148 3.148 0 0 1 -0.257 0.482 0.604 0.604 0 0 0 0.193 0.193q-0.325 0.015 -0.578 -0.257 0.111 -0.119 0.225 0a3.084 3.084 0 0 0 0.289 -0.514"/></g><g><path style="opacity:1" fill="#e3a635" d="M32.216 52.323q0.443 -0.007 0.385 0.385 -0.098 -0.257 -0.321 -0.128 0.457 0.507 -0.193 0.482 -0.185 -0.12 -0.064 -0.289 0.098 0.257 0.321 0.128a1.176 1.176 0 0 1 -0.257 -0.385 11.949 11.949 0 0 0 0.128 -0.193"/></g><g><path style="opacity:1" fill="#e5ad30" d="M40.632 52.131q0.35 0.282 0.321 0.707 -0.275 -0.067 -0.482 -0.257 -0.004 0.218 0.161 0.385a0.287 0.287 0 0 1 -0.096 0.128q-0.245 -0.324 -0.353 -0.707 0.296 0.086 0.578 0.161 -0.177 -0.201 -0.128 -0.418"/></g><g><path style="opacity:1" fill="#e1a432" d="M39.604 52.709q0.604 -0.013 0.482 0.578 -0.253 0.331 -0.546 0.064 0.762 -0.045 0.193 -0.514 -0.208 0.041 -0.257 0.257 -0.105 -0.242 0.128 -0.385"/></g><g><path style="opacity:1" fill="#e1a62f" d="M32.987 52.709q0.096 -0.008 0.161 0.064l0.064 0.514a1.895 1.895 0 0 1 0.161 -0.289q0.095 -0.057 0.128 0.064a1.741 1.741 0 0 1 -0.353 0.61 3.45 3.45 0 0 1 -0.161 -0.578 2.081 2.081 0 0 0 -0.193 0.289q-0.095 0.057 -0.128 -0.064a8.351 8.351 0 0 0 0.321 -0.61"/></g><g><path style="opacity:1" fill="#ecb62c" d="M35.814 53.415q1.192 -0.077 0.996 1.092 -0.447 0.776 -1.253 0.353 -0.37 -0.428 -0.225 -0.996 0.168 -0.313 0.482 -0.45"/></g><g><path style="opacity:1" fill="#e1a530" d="M38.961 53.094q0.263 0.237 0.385 0.578 -0.128 0.208 -0.353 0.321 -0.043 -0.247 0.225 -0.289 -0.215 -0.104 -0.45 -0.096l0.257 -0.193a0.287 0.287 0 0 0 -0.096 -0.128q-0.139 0.146 -0.289 0.064a1.522 1.522 0 0 1 0.321 -0.257"/></g><g><path style="opacity:1" fill="#e0a333" d="M33.758 53.223q0.113 -0.021 0.193 0.064a4.028 4.028 0 0 1 -0.385 0.578l-0.064 -0.096a3.597 3.597 0 0 0 0.257 -0.546"/></g></svg>